<!--
  © 2026 Enes Akan · https://enesakan.com
  "contact footer bar" — original design, part of https://github.com/eneesakan/eneesakan
  Licensed CC BY-NC-ND 4.0 · https://creativecommons.org/licenses/by-nc-nd/4.0/
  Reuse requires attribution. Commercial use and modification are not permitted.
  fingerprint: EA-0D37FD800E26
-->
<svg xmlns="http://www.w3.org/2000/svg" viewBox="0 0 1000 70" width="1000" height="70" fill="none" role="img" aria-label="enesakan.com · info@enesakan.com · Turkey">
  <metadata xmlns:dc="http://purl.org/dc/elements/1.1/" xmlns:cc="http://creativecommons.org/ns#" xmlns:rdf="http://www.w3.org/1999/02/22-rdf-syntax-ns#">
    <rdf:RDF><cc:Work rdf:about="">
      <dc:title>contact footer bar</dc:title>
      <dc:creator><cc:Agent><dc:title>Enes Akan</dc:title></cc:Agent></dc:creator>
      <dc:rights><cc:Agent><dc:title>© 2026 Enes Akan — https://enesakan.com</dc:title></cc:Agent></dc:rights>
      <dc:date>2026</dc:date>
      <dc:source>https://github.com/eneesakan/eneesakan</dc:source>
      <dc:identifier>EA-0D37FD800E26</dc:identifier>
      <cc:license rdf:resource="https://creativecommons.org/licenses/by-nc-nd/4.0/"/>
    </cc:Work></rdf:RDF>
  </metadata>

  <defs>
    <linearGradient id="bm" x1="0" y1="0" x2="1" y2="0">
      <stop offset="0%" stop-color="#fff" stop-opacity="0"/><stop offset="50%" stop-color="#fff" stop-opacity=".7"/><stop offset="100%" stop-color="#fff" stop-opacity="0"/>
    </linearGradient>
    <pattern id="g5" width="24" height="24" patternUnits="userSpaceOnUse">
      <path d="M24 0H0V24" stroke="#fff" stroke-opacity=".028" stroke-width="1"/>
    </pattern>
    <clipPath id="fc"><rect x="0" y="0" width="1000" height="70" rx="12"/></clipPath>
  </defs>
  <style>
    .cl{opacity:0;animation:f5 .8s ease forwards}
    .c0{animation-delay:0.15s}
    .c1{animation-delay:0.27s}
    .c2{animation-delay:0.39s}
    .c3{animation-delay:0.51s}
    .fr{opacity:0;animation:f5 1s ease .05s forwards}
    .dv{opacity:0;animation:f5 .9s ease .35s forwards}
    @keyframes f5{to{opacity:1}}
    .ring{transform-origin:center;animation:pulse 2.6s ease-out infinite}
    @keyframes pulse{0%{opacity:.9;transform:scale(.7)}70%{opacity:0;transform:scale(2.4)}100%{opacity:0;transform:scale(2.4)}}
    .beam{animation:bm 7s ease-in-out 1.2s infinite}
    @keyframes bm{0%{transform:translateX(-460px);opacity:0}10%{opacity:1}40%{transform:translateX(1160px);opacity:0}100%{transform:translateX(1160px);opacity:0}}
  </style>
  <rect width="1000" height="70" rx="12" fill="#0D1117"/>
  <rect width="1000" height="70" rx="12" fill="url(#g5)"/>
  <rect x=".8" y=".8" width="998.4" height="68.4" rx="12" stroke="#21262D" stroke-width="1.6" class="fr"/>
  <g clip-path="url(#fc)"><rect class="beam" x="0" y="0" width="300" height="1.8" fill="url(#bm)"/></g>
  <path class="dv" d="M250 24V46" stroke="#21262D" stroke-width="1.3"/><path class="dv" d="M500 24V46" stroke="#21262D" stroke-width="1.3"/><path class="dv" d="M750 24V46" stroke="#21262D" stroke-width="1.3"/>
  <g class="cl c0"><circle class="ring" cx="47.0" cy="35.4" r="3" fill="none" stroke="#8B949E" stroke-width="1.1"/><circle cx="47.0" cy="35.4" r="2.1" fill="#E6EDF3"/><g fill="#8B949E"><path transform="translate(56.00,39) scale(0.01080,-0.01080)" d="M300 -10Q234 -10 186.5 15.0Q139 40 113.5 87.5Q88 135 88 200V530Q88 596 113.5 643.0Q139 690 186.5 715.0Q234 740 300 740Q366 740 413.5 715.0Q461 690 486.5 643.0Q512 596 512 531V200Q512 135 486.5 87.5Q461 40 413.5 15.0Q366 -10 300 -10ZM300 71Q359 71 390.5 104.5Q422 138 422 200V530Q422 592 390.5 625.5Q359 659 300 659Q242 659 210.0 625.5Q178 592 178 530V200Q178 138 210.0 104.5Q242 71 300 71Z"/><path transform="translate(66.68,39) scale(0.01080,-0.01080)" d="M92 0V730H327Q395 730 445.0 703.5Q495 677 522.5 629.0Q550 581 550 515Q550 450 522.5 401.5Q495 353 445.0 326.5Q395 300 327 300H182V0ZM182 381H327Q386 381 421.5 417.5Q457 454 457 515Q457 577 421.5 613.0Q386 649 327 649H182Z"/><path transform="translate(77.36,39) scale(0.01080,-0.01080)" d="M100 0V730H520V648H189V422H485V341H189V82H520V0Z"/><path transform="translate(88.04,39) scale(0.01080,-0.01080)" d="M90 0V730H210L433 105Q431 130 428.5 166.5Q426 203 424.5 243.5Q423 284 423 320V730H510V0H390L168 625Q170 601 172.0 564.5Q174 528 175.5 487.5Q177 447 177 410V0Z"/><path transform="translate(120.08,39) scale(0.01080,-0.01080)" d="M95 0V731H525V649H183V406H499V324H185V0Z"/><path transform="translate(130.76,39) scale(0.01080,-0.01080)" d="M300 -10Q234 -10 186.5 15.0Q139 40 113.5 87.5Q88 135 88 200V530Q88 596 113.5 643.0Q139 690 186.5 715.0Q234 740 300 740Q366 740 413.5 715.0Q461 690 486.5 643.0Q512 596 512 531V200Q512 135 486.5 87.5Q461 40 413.5 15.0Q366 -10 300 -10ZM300 71Q359 71 390.5 104.5Q422 138 422 200V530Q422 592 390.5 625.5Q359 659 300 659Q242 659 210.0 625.5Q178 592 178 530V200Q178 138 210.0 104.5Q242 71 300 71Z"/><path transform="translate(141.44,39) scale(0.01080,-0.01080)" d="M92 0V730H318Q383 730 432.0 703.5Q481 677 508.0 630.0Q535 583 535 520Q535 446 496.5 393.0Q458 340 392 320L545 0H439L299 310H182V0ZM182 391H318Q374 391 408.0 426.5Q442 462 442 520Q442 579 408.0 614.0Q374 649 318 649H182Z"/><path transform="translate(173.48,39) scale(0.01080,-0.01080)" d="M109 0 25 730H111L166 190Q168 168 170.0 144.5Q172 121 173.5 100.0Q175 79 175 65Q177 79 178.5 100.0Q180 121 182.5 144.5Q185 168 188 190L256 730H349L411 190Q414 168 416.5 144.5Q419 121 421.5 100.0Q424 79 425 65Q426 79 427.5 100.0Q429 121 431.5 144.5Q434 168 436 190L493 730H575L489 0H376L314 550Q312 573 309.5 595.0Q307 617 305.0 636.0Q303 655 302 667Q301 655 298.5 636.0Q296 617 294.0 595.0Q292 573 289 550L222 0Z"/><path transform="translate(184.16,39) scale(0.01080,-0.01080)" d="M300 -10Q234 -10 186.5 15.0Q139 40 113.5 87.5Q88 135 88 200V530Q88 596 113.5 643.0Q139 690 186.5 715.0Q234 740 300 740Q366 740 413.5 715.0Q461 690 486.5 643.0Q512 596 512 531V200Q512 135 486.5 87.5Q461 40 413.5 15.0Q366 -10 300 -10ZM300 71Q359 71 390.5 104.5Q422 138 422 200V530Q422 592 390.5 625.5Q359 659 300 659Q242 659 210.0 625.5Q178 592 178 530V200Q178 138 210.0 104.5Q242 71 300 71Z"/><path transform="translate(194.84,39) scale(0.01080,-0.01080)" d="M92 0V730H318Q383 730 432.0 703.5Q481 677 508.0 630.0Q535 583 535 520Q535 446 496.5 393.0Q458 340 392 320L545 0H439L299 310H182V0ZM182 391H318Q374 391 408.0 426.5Q442 462 442 520Q442 579 408.0 614.0Q374 649 318 649H182Z"/><path transform="translate(205.52,39) scale(0.01080,-0.01080)" d="M92 0V730H182V417H290L452 730H550L369 379L560 0H457L287 338H182V0Z"/></g></g>
<g class="cl c1"><g fill="#E6EDF3"><path transform="translate(313.02,39) scale(0.01080,-0.01080)" d="M94 0V730H523V634H200V427H488V332H200V96H523V0Z"/><path transform="translate(323.70,39) scale(0.01080,-0.01080)" d="M81 0V730H217L430 123Q428 152 425.0 192.0Q422 232 420.5 275.0Q419 318 419 353V730H519V0H383L171 607Q173 581 175.5 542.0Q178 503 179.5 461.0Q181 419 181 383V0Z"/><path transform="translate(334.38,39) scale(0.01080,-0.01080)" d="M94 0V730H523V634H200V427H488V332H200V96H523V0Z"/><path transform="translate(345.06,39) scale(0.01080,-0.01080)" d="M303 -10Q229 -10 176.0 14.5Q123 39 94.0 84.5Q65 130 65 193H172Q172 143 207.0 114.5Q242 86 304 86Q362 86 395.0 114.0Q428 142 428 191Q428 232 405.5 262.0Q383 292 341 303L249 330Q169 353 125.5 408.5Q82 464 82 541Q82 601 109.0 646.0Q136 691 186.0 716.0Q236 741 304 741Q404 741 464.5 687.0Q525 633 526 542H418Q418 590 387.5 617.5Q357 645 302 645Q249 645 219.0 619.5Q189 594 189 548Q189 507 211.5 477.0Q234 447 276 435L369 407Q449 385 492.0 329.0Q535 273 535 195Q535 134 506.0 87.5Q477 41 425.0 15.5Q373 -10 303 -10Z"/><path transform="translate(355.74,39) scale(0.01080,-0.01080)" d="M43 0 229 730H371L557 0H448L404 185H197L153 0ZM217 274H383L333 485Q320 541 311.5 582.5Q303 624 300 639Q297 624 289.0 582.5Q281 541 267 486Z"/><path transform="translate(366.42,39) scale(0.01080,-0.01080)" d="M84 0V730H192V426H289L438 730H556L384 380L564 0H443L287 329H192V0Z"/><path transform="translate(377.10,39) scale(0.01080,-0.01080)" d="M43 0 229 730H371L557 0H448L404 185H197L153 0ZM217 274H383L333 485Q320 541 311.5 582.5Q303 624 300 639Q297 624 289.0 582.5Q281 541 267 486Z"/><path transform="translate(387.78,39) scale(0.01080,-0.01080)" d="M81 0V730H217L430 123Q428 152 425.0 192.0Q422 232 420.5 275.0Q419 318 419 353V730H519V0H383L171 607Q173 581 175.5 542.0Q178 503 179.5 461.0Q181 419 181 383V0Z"/><path transform="translate(398.46,39) scale(0.01080,-0.01080)" d="M300 -10Q260 -10 236.0 13.5Q212 37 212 77Q212 118 236.0 142.5Q260 167 300 167Q341 167 364.5 142.5Q388 118 388 77Q388 37 364.5 13.5Q341 -10 300 -10Z"/><path transform="translate(409.14,39) scale(0.01080,-0.01080)" d="M304 -10Q236 -10 185.5 15.5Q135 41 107.5 89.5Q80 138 80 203V527Q80 593 107.5 641.0Q135 689 185.5 714.5Q236 740 304 740Q372 740 422.0 714.0Q472 688 499.5 640.5Q527 593 527 527H419Q419 584 389.0 614.0Q359 644 304 644Q249 644 218.5 614.0Q188 584 188 528V203Q188 147 218.5 116.5Q249 86 304 86Q359 86 389.0 116.5Q419 147 419 203H527Q527 138 499.5 90.0Q472 42 422.0 16.0Q372 -10 304 -10Z"/><path transform="translate(419.82,39) scale(0.01080,-0.01080)" d="M300 -10Q232 -10 182.5 15.5Q133 41 106.5 89.5Q80 138 80 203V527Q80 593 106.5 641.0Q133 689 182.5 714.5Q232 740 300 740Q368 740 417.5 714.5Q467 689 493.5 641.0Q520 593 520 528V203Q520 138 493.5 89.5Q467 41 417.5 15.5Q368 -10 300 -10ZM300 86Q355 86 383.5 116.5Q412 147 412 203V527Q412 584 383.5 614.0Q355 644 300 644Q246 644 217.0 614.0Q188 584 188 527V203Q188 147 217.0 116.5Q246 86 300 86Z"/><path transform="translate(430.50,39) scale(0.01080,-0.01080)" d="M66 0V730H199L272 496Q283 463 291.0 432.5Q299 402 302 387Q306 402 313.5 432.5Q321 463 331 496L401 730H534V0H432V246Q432 293 434.5 350.5Q437 408 442.0 466.5Q447 525 452.0 578.5Q457 632 461 672L353 317H249L139 672Q144 633 149.0 581.5Q154 530 158.0 472.0Q162 414 165.0 355.5Q168 297 168 246V0Z"/></g></g>
<g class="cl c2"><g fill="#C9D1D9"><path transform="translate(536.32,39) scale(0.01080,-0.01080)" d="M105 0V82H254V648H105V730H495V648H346V82H495V0Z"/><path transform="translate(547.00,39) scale(0.01080,-0.01080)" d="M90 0V730H210L433 105Q431 130 428.5 166.5Q426 203 424.5 243.5Q423 284 423 320V730H510V0H390L168 625Q170 601 172.0 564.5Q174 528 175.5 487.5Q177 447 177 410V0Z"/><path transform="translate(557.68,39) scale(0.01080,-0.01080)" d="M95 0V731H525V649H183V406H499V324H185V0Z"/><path transform="translate(568.36,39) scale(0.01080,-0.01080)" d="M300 -10Q234 -10 186.5 15.0Q139 40 113.5 87.5Q88 135 88 200V530Q88 596 113.5 643.0Q139 690 186.5 715.0Q234 740 300 740Q366 740 413.5 715.0Q461 690 486.5 643.0Q512 596 512 531V200Q512 135 486.5 87.5Q461 40 413.5 15.0Q366 -10 300 -10ZM300 71Q359 71 390.5 104.5Q422 138 422 200V530Q422 592 390.5 625.5Q359 659 300 659Q242 659 210.0 625.5Q178 592 178 530V200Q178 138 210.0 104.5Q242 71 300 71Z"/><path transform="translate(579.04,39) scale(0.01080,-0.01080)" d="M325 -180Q240 -180 177.0 -144.5Q114 -109 79.5 -43.5Q45 22 45 110V450Q45 540 77.5 605.0Q110 670 170.5 705.0Q231 740 315 740Q391 740 446.0 710.5Q501 681 530.5 626.0Q560 571 560 495V65H489V120H461L480 140Q480 102 451.0 78.5Q422 55 374 55Q309 55 274.5 94.5Q240 134 240 210V330Q240 406 274.5 445.5Q309 485 374 485Q422 485 451.0 461.5Q480 438 480 399L466 420H490L480 490V495Q480 552 461.0 591.0Q442 630 405.5 650.0Q369 670 315 670Q225 670 175.0 612.0Q125 554 125 450V110Q125 10 178.5 -47.5Q232 -105 325 -105H395V-180ZM400 118Q441 118 460.5 143.0Q480 168 480 220V331Q480 378 460.5 400.0Q441 422 400 422Q360 422 340.0 399.5Q320 377 320 330V210Q320 163 340.0 140.5Q360 118 400 118Z"/><path transform="translate(589.72,39) scale(0.01080,-0.01080)" d="M100 0V730H520V648H189V422H485V341H189V82H520V0Z"/><path transform="translate(600.40,39) scale(0.01080,-0.01080)" d="M90 0V730H210L433 105Q431 130 428.5 166.5Q426 203 424.5 243.5Q423 284 423 320V730H510V0H390L168 625Q170 601 172.0 564.5Q174 528 175.5 487.5Q177 447 177 410V0Z"/><path transform="translate(611.08,39) scale(0.01080,-0.01080)" d="M100 0V730H520V648H189V422H485V341H189V82H520V0Z"/><path transform="translate(621.76,39) scale(0.01080,-0.01080)" d="M304 -10Q232 -10 180.5 14.0Q129 38 101.0 83.0Q73 128 72 190H162Q162 135 199.5 103.0Q237 71 304 71Q367 71 402.5 102.0Q438 133 438 188Q438 232 414.5 265.0Q391 298 347 311L248 342Q173 365 132.5 419.0Q92 473 92 546Q92 605 118.5 648.5Q145 692 193.0 716.5Q241 741 306 741Q402 741 460.0 687.5Q518 634 519 545H429Q429 599 396.5 629.5Q364 660 305 660Q247 660 214.5 632.0Q182 604 182 554Q182 509 206.0 476.0Q230 443 275 429L375 397Q448 374 488.0 319.0Q528 264 528 190Q528 130 500.0 85.0Q472 40 421.5 15.0Q371 -10 304 -10Z"/><path transform="translate(632.44,39) scale(0.01080,-0.01080)" d="M50 0 240 730H361L550 0H459L411 194H190L142 0ZM208 270H392L336 495Q320 559 311.0 602.0Q302 645 300 658Q298 645 289.0 602.0Q280 559 264 496Z"/><path transform="translate(643.12,39) scale(0.01080,-0.01080)" d="M92 0V730H182V417H290L452 730H550L369 379L560 0H457L287 338H182V0Z"/><path transform="translate(653.80,39) scale(0.01080,-0.01080)" d="M50 0 240 730H361L550 0H459L411 194H190L142 0ZM208 270H392L336 495Q320 559 311.0 602.0Q302 645 300 658Q298 645 289.0 602.0Q280 559 264 496Z"/><path transform="translate(664.48,39) scale(0.01080,-0.01080)" d="M90 0V730H210L433 105Q431 130 428.5 166.5Q426 203 424.5 243.5Q423 284 423 320V730H510V0H390L168 625Q170 601 172.0 564.5Q174 528 175.5 487.5Q177 447 177 410V0Z"/><path transform="translate(675.16,39) scale(0.01080,-0.01080)" d="M300 -10Q262 -10 239.5 12.0Q217 34 217 71Q217 110 239.5 133.0Q262 156 300 156Q338 156 360.5 133.0Q383 110 383 71Q383 34 360.5 12.0Q338 -10 300 -10Z"/><path transform="translate(685.84,39) scale(0.01080,-0.01080)" d="M304 -10Q238 -10 189.5 15.0Q141 40 114.5 87.5Q88 135 88 200V530Q88 596 114.5 643.0Q141 690 189.5 715.0Q238 740 304 740Q370 740 418.0 714.5Q466 689 492.0 642.0Q518 595 518 530H428Q428 592 395.5 625.5Q363 659 304 659Q245 659 211.5 626.0Q178 593 178 531V200Q178 138 211.5 104.5Q245 71 304 71Q363 71 395.5 104.5Q428 138 428 200H518Q518 136 492.0 88.5Q466 41 418.0 15.5Q370 -10 304 -10Z"/><path transform="translate(696.52,39) scale(0.01080,-0.01080)" d="M300 -10Q234 -10 186.5 15.0Q139 40 113.5 87.5Q88 135 88 200V530Q88 596 113.5 643.0Q139 690 186.5 715.0Q234 740 300 740Q366 740 413.5 715.0Q461 690 486.5 643.0Q512 596 512 531V200Q512 135 486.5 87.5Q461 40 413.5 15.0Q366 -10 300 -10ZM300 71Q359 71 390.5 104.5Q422 138 422 200V530Q422 592 390.5 625.5Q359 659 300 659Q242 659 210.0 625.5Q178 592 178 530V200Q178 138 210.0 104.5Q242 71 300 71Z"/><path transform="translate(707.20,39) scale(0.01080,-0.01080)" d="M76 0V730H194L270 494Q281 462 290.0 430.5Q299 399 303 382Q308 399 316.0 430.5Q324 462 334 495L406 730H524V0H436V265Q436 309 439.0 365.0Q442 421 447.0 479.5Q452 538 457.5 591.5Q463 645 467 685L349 320H254L135 685Q140 646 145.0 594.5Q150 543 154.0 485.5Q158 428 161.0 371.0Q164 314 164 265V0Z"/></g></g>
<g class="cl c3"><g fill="#8B949E"><path transform="translate(791.66,39) scale(0.01080,-0.01080)" d="M255 0V649H55V731H545V649H345V0Z"/><path transform="translate(802.34,39) scale(0.01080,-0.01080)" d="M300 -10Q198 -10 144.0 46.5Q90 103 90 200V730H180V200Q180 140 209.5 105.0Q239 70 300 70Q360 70 390.0 105.0Q420 140 420 200V730H510V200Q510 102 456.5 46.0Q403 -10 300 -10Z"/><path transform="translate(813.02,39) scale(0.01080,-0.01080)" d="M92 0V730H318Q383 730 432.0 703.5Q481 677 508.0 630.0Q535 583 535 520Q535 446 496.5 393.0Q458 340 392 320L545 0H439L299 310H182V0ZM182 391H318Q374 391 408.0 426.5Q442 462 442 520Q442 579 408.0 614.0Q374 649 318 649H182Z"/><path transform="translate(823.70,39) scale(0.01080,-0.01080)" d="M92 0V730H182V417H290L452 730H550L369 379L560 0H457L287 338H182V0Z"/><path transform="translate(834.38,39) scale(0.01080,-0.01080)" d="M100 0V730H520V648H189V422H485V341H189V82H520V0Z"/><path transform="translate(845.06,39) scale(0.01080,-0.01080)" d="M255 0V273L35 730H128L273 430Q285 405 292.0 387.5Q299 370 301 362Q303 370 310.5 387.5Q318 405 330 430L472 730H565L345 273V0Z"/><path transform="translate(877.10,39) scale(0.01080,-0.01080)" d="M300 260Q262 260 239.5 282.0Q217 304 217 341Q217 380 239.5 403.0Q262 426 300 426Q338 426 360.5 403.0Q383 380 383 341Q383 304 360.5 282.0Q338 260 300 260Z"/><path transform="translate(909.14,39) scale(0.01080,-0.01080)" d="M300 -10Q198 -10 144.0 46.5Q90 103 90 200V730H180V200Q180 140 209.5 105.0Q239 70 300 70Q360 70 390.0 105.0Q420 140 420 200V730H510V200Q510 102 456.5 46.0Q403 -10 300 -10Z"/><path transform="translate(919.82,39) scale(0.01080,-0.01080)" d="M255 0V649H55V731H545V649H345V0Z"/><path transform="translate(930.50,39) scale(0.01080,-0.01080)" d="M304 -10Q238 -10 189.5 15.0Q141 40 114.5 87.5Q88 135 88 200V530Q88 596 114.5 643.0Q141 690 189.5 715.0Q238 740 304 740Q370 740 418.0 714.5Q466 689 492.0 642.0Q518 595 518 530H428Q428 592 395.5 625.5Q363 659 304 659Q245 659 211.5 626.0Q178 593 178 531V200Q178 138 211.5 104.5Q245 71 304 71Q363 71 395.5 104.5Q428 138 428 200H518Q518 136 492.0 88.5Q466 41 418.0 15.5Q370 -10 304 -10Z"/><path transform="translate(941.18,39) scale(0.01080,-0.01080)" d="M256 95V290H65V370H256V565H344V370H535V290H344V95Z"/><path transform="translate(951.86,39) scale(0.01080,-0.01080)" d="M289 -10Q223 -10 173.5 16.5Q124 43 97.0 90.0Q70 137 70 200H160Q160 139 194.5 104.5Q229 70 290 70Q352 70 386.0 106.0Q420 142 420 200V252Q420 314 386.0 348.0Q352 382 290 382H215V472L396 648H100V730H487V640L292 451V462Q392 462 451.0 405.0Q510 348 510 252V200Q510 137 482.5 90.0Q455 43 405.0 16.5Q355 -10 289 -10Z"/></g></g>
</svg>
